<svg xmlns="http://www.w3.org/2000/svg" width="512" height="512" viewBox="0 0 512 512">
<defs>
  <filter id="goo" x="-20%" y="-20%" width="140%" height="140%"><feGaussianBlur stdDeviation="2.6" result="b"/><feColorMatrix in="b" mode="matrix" values="1 0 0 0 0  0 1 0 0 0  0 0 1 0 0  0 0 0 14 -6"/></filter>
  <mask id="silhouette" maskUnits="userSpaceOnUse" x="-64" y="-120" width="128" height="134"><g filter="url(#goo)"><circle cx="0" cy="-76" r="22" fill="#fff" /><ellipse cx="0" cy="-54" rx="34" ry="24" fill="#fff" /><circle cx="0" cy="-28" r="33" fill="#fff" /><circle cx="-17.5" cy="-96" r="9.5" fill="#fff" /><circle cx="17.5" cy="-96" r="9.5" fill="#fff" /><circle cx="0" cy="-4" r="5" fill="#fff" /></g></mask>
  <radialGradient id="base" cx=".42" cy=".3" r=".85"><stop offset="0" stop-color="#6c4730"/><stop offset=".55" stop-color="#4a2e1d"/><stop offset="1" stop-color="#2a190f"/></radialGradient>
  <filter id="blur-lg" filterUnits="userSpaceOnUse" x="-70" y="-125" width="140" height="140"><feGaussianBlur stdDeviation="2.4"/></filter>
  <filter id="edge" filterUnits="userSpaceOnUse" x="-70" y="-125" width="140" height="140"><feGaussianBlur stdDeviation=".55"/></filter>
</defs>
<g transform="translate(256 472) scale(4)">
<g mask="url(#silhouette)">
<rect x="-60" y="-120" width="120" height="130" fill="url(#base)"/>
<ellipse cx="0" cy="-6" rx="30" ry="14" fill="#4a3f33" opacity=".28" filter="url(#blur-lg)"/>
<ellipse cx="0" cy="-56" rx="20" ry="6" fill="#4a3f33" opacity=".28" filter="url(#blur-lg)"/>
<ellipse cx="0" cy="-60" rx="23" ry="11" fill="#7a5238" opacity=".5" filter="url(#blur-lg)"/>
<circle cx="-17.5" cy="-96" r="5.2" fill="#2b190d" opacity=".7" filter="url(#blur-lg)"/>
<circle cx="17.5" cy="-96" r="5.2" fill="#2b190d" opacity=".7" filter="url(#blur-lg)"/>
<circle cx="0" cy="-4.5" r="4.4" fill="#2b190d" filter="url(#edge)"/>
</g>
</g></svg>
