<svg xmlns="http://www.w3.org/2000/svg" width="512" height="512" viewBox="0 0 512 512">
<defs>
  <filter id="goo" x="-20%" y="-20%" width="140%" height="140%"><feGaussianBlur stdDeviation="2.6" result="b"/><feColorMatrix in="b" mode="matrix" values="1 0 0 0 0  0 1 0 0 0  0 0 1 0 0  0 0 0 14 -6"/></filter>
  <mask id="silhouette" maskUnits="userSpaceOnUse" x="-64" y="-120" width="128" height="134"><g filter="url(#goo)"><circle cx="-11" cy="-70" r="21" fill="#fff" /><ellipse cx="-30" cy="-64" rx="9.5" ry="8" fill="#fff" /><ellipse cx="7" cy="-60" rx="23" ry="23" fill="#fff" /><circle cx="9" cy="-30" r="30" fill="#fff" /><circle cx="-4" cy="-90" r="8.8" fill="#fff" /><ellipse cx="-15" cy="-21" rx="10.5" ry="21" fill="#fff" /><ellipse cx="-19" cy="-6.5" rx="13" ry="6.5" fill="#fff" /><ellipse cx="19" cy="-15" rx="20" ry="15" fill="#fff" /><ellipse cx="9" cy="-5.8" rx="14" ry="5.8" fill="#fff" /><circle cx="37" cy="-23" r="5.2" fill="#fff" /></g></mask>
  <radialGradient id="base" cx=".42" cy=".3" r=".85"><stop offset="0" stop-color="#6c4730"/><stop offset=".55" stop-color="#4a2e1d"/><stop offset="1" stop-color="#2a190f"/></radialGradient>
  <filter id="blur-lg" filterUnits="userSpaceOnUse" x="-70" y="-125" width="140" height="140"><feGaussianBlur stdDeviation="2.4"/></filter>
  <filter id="edge" filterUnits="userSpaceOnUse" x="-70" y="-125" width="140" height="140"><feGaussianBlur stdDeviation=".55"/></filter>
</defs>
<g transform="translate(256 472) scale(4)">
<g mask="url(#silhouette)">
<rect x="-60" y="-120" width="120" height="130" fill="url(#base)"/>
<ellipse cx="0" cy="-6" rx="30" ry="14" fill="#4a3f33" opacity=".28" filter="url(#blur-lg)"/>
<ellipse cx="0" cy="-56" rx="20" ry="6" fill="#4a3f33" opacity=".28" filter="url(#blur-lg)"/>
<ellipse cx="5" cy="-68" rx="17" ry="9" fill="#7a5238" opacity=".45" filter="url(#blur-lg)"/>
<ellipse cx="-17" cy="-40" rx="10" ry="16" fill="#7a5238" opacity=".8" filter="url(#blur-lg)"/>
<ellipse cx="-31" cy="-63" rx="8.5" ry="6.2" fill="#c0956a" opacity=".95" filter="url(#blur-lg)"/>
<circle cx="-4" cy="-90" r="4.8" fill="#2b190d" opacity=".7" filter="url(#blur-lg)"/>
<ellipse cx="19" cy="-15" rx="18" ry="13" fill="#33200f" opacity=".5" filter="url(#blur-lg)"/>
<ellipse cx="-15" cy="-21" rx="10" ry="20" fill="#33200f" filter="url(#edge)"/>
<ellipse cx="-19" cy="-6.3" rx="13" ry="6.2" fill="#2b190d" filter="url(#edge)"/>
<ellipse cx="9" cy="-5.6" rx="14" ry="5.6" fill="#2b190d" filter="url(#edge)"/>
<circle cx="37" cy="-23" r="4.8" fill="#33200f" filter="url(#edge)"/>
</g>
</g></svg>
