<svg xmlns="http://www.w3.org/2000/svg" width="512" height="512" viewBox="0 0 512 512">
<defs>
  <filter id="goo" x="-20%" y="-20%" width="140%" height="140%"><feGaussianBlur stdDeviation="1.9" result="b"/><feColorMatrix in="b" mode="matrix" values="1 0 0 0 0  0 1 0 0 0  0 0 1 0 0  0 0 0 14 -6"/></filter>
  <mask id="silhouette" maskUnits="userSpaceOnUse" x="-64" y="-120" width="128" height="134"><g filter="url(#goo)"><circle cx="-5" cy="-76" r="22" fill="#fff" /><polygon points="-20,-80 -40,-69.5 -20,-60" fill="#fff" /><ellipse cx="3" cy="-31" rx="33" ry="30" fill="#fff" /><polygon points="-10,-91 -3,-111 10,-93" fill="#fff" /><ellipse cx="-23" cy="-6" rx="12" ry="7" fill="#fff" /><circle cx="18" cy="-16" r="11" fill="#fff" /><circle cx="23.31" cy="-14.79" r="11.22" fill="#fff" /><circle cx="28.05" cy="-14.32" r="11.78" fill="#fff" /><circle cx="32.22" cy="-14.54" r="12.5" fill="#fff" /><circle cx="35.86" cy="-15.39" r="13.22" fill="#fff" /><circle cx="38.96" cy="-16.81" r="13.78" fill="#fff" /><circle cx="41.55" cy="-18.75" r="14" fill="#fff" /><circle cx="43.64" cy="-21.15" r="13.73" fill="#fff" /><circle cx="45.24" cy="-23.95" r="12.99" fill="#fff" /><circle cx="46.37" cy="-27.09" r="11.93" fill="#fff" /><circle cx="47.04" cy="-30.52" r="10.66" fill="#fff" /><circle cx="47.26" cy="-34.18" r="9.34" fill="#fff" /><circle cx="47.06" cy="-38.02" r="8.07" fill="#fff" /><circle cx="46.43" cy="-41.97" r="7.01" fill="#fff" /><circle cx="45.41" cy="-45.98" r="6.27" fill="#fff" /><circle cx="44" cy="-50" r="6" fill="#fff" /></g></mask>
  <radialGradient id="base" cx=".42" cy=".3" r=".85"><stop offset="0" stop-color="#ec8a42"/><stop offset=".55" stop-color="#d4702c"/><stop offset="1" stop-color="#9a4a1a"/></radialGradient>
  <filter id="blur-lg" filterUnits="userSpaceOnUse" x="-70" y="-125" width="140" height="140"><feGaussianBlur stdDeviation="2.4"/></filter>
  <filter id="edge" filterUnits="userSpaceOnUse" x="-70" y="-125" width="140" height="140"><feGaussianBlur stdDeviation=".55"/></filter>
  <filter id="tail-soft" filterUnits="userSpaceOnUse" x="-70" y="-125" width="140" height="140"><feGaussianBlur stdDeviation="1.6"/></filter>
<filter id="blur-sm" filterUnits="userSpaceOnUse" x="-70" y="-125" width="140" height="140"><feGaussianBlur stdDeviation="1.2"/></filter><filter id="blur-xl" filterUnits="userSpaceOnUse" x="-70" y="-125" width="140" height="140"><feGaussianBlur stdDeviation="3.6"/></filter>
</defs>
<g transform="translate(256 472) scale(4)">
<g mask="url(#silhouette)">
<rect x="-60" y="-120" width="120" height="130" fill="url(#base)"/>
<ellipse cx="0" cy="-6" rx="30" ry="14" fill="#4a3f33" opacity=".28" filter="url(#blur-lg)"/>
<ellipse cx="0" cy="-56" rx="20" ry="6" fill="#4a3f33" opacity=".28" filter="url(#blur-lg)"/>
<ellipse cx="14" cy="-22" rx="15" ry="16" fill="#b85d1c" opacity=".3" filter="url(#blur-lg)"/>
<ellipse cx="4" cy="-58" rx="18" ry="6" fill="#ee9a55" opacity=".4" filter="url(#blur-lg)"/>
<ellipse cx="-2" cy="-84" rx="11" ry="5" fill="#b85d1c" opacity=".4" filter="url(#blur-lg)"/>
<ellipse cx="-17" cy="-42" rx="10" ry="14" fill="#f8e0b4" opacity=".95" filter="url(#blur-lg)"/>
<ellipse cx="-8" cy="-12" rx="14" ry="5" fill="#f8e0b4" opacity=".5" filter="url(#blur-lg)"/>
<ellipse cx="-14" cy="-62" rx="10" ry="5.5" fill="#f8e0b4" opacity=".85" filter="url(#blur-sm)"/>
<polygon points="-20,-59 -40,-69.5 -31,-67.2 -20,-65.5" fill="#f8e0b4" filter="url(#edge)"/>
<ellipse cx="-22" cy="-58" rx="6" ry="5" fill="#f8e0b4" opacity=".9" filter="url(#blur-lg)"/>
<path d="M-34,-70.5 L-22,-75" fill="none" stroke="#b85d1c" stroke-width="3" stroke-linecap="round" opacity=".4" filter="url(#blur-sm)"/>
<circle cx="-38.6" cy="-69.6" r="2" fill="#3b241a" filter="url(#edge)"/>
<polygon points="-10,-91 -3,-111 3,-99" fill="#3b241a" />
<polygon points="-8,-93 -3.4,-105 0.4,-97.5" fill="#c9824a" opacity=".5" filter="url(#edge)"/>
<path d="M-8,-38 C-14,-30 -18,-22 -20,-16" fill="none" stroke="#c4651f" stroke-width="12" stroke-linecap="round" stroke-linejoin="round" />
<path d="M-10,-36 C-15,-29 -18,-23 -20,-18" fill="none" stroke="#e58a45" stroke-width="3.2" stroke-linecap="round" opacity=".55" filter="url(#blur-sm)"/>
<path d="M-20,-17 L-23,-8" fill="none" stroke="#3b241a" stroke-width="11" stroke-linecap="round" stroke-linejoin="round" filter="url(#edge)"/>
<ellipse cx="-24" cy="-6.5" rx="12" ry="6.5" fill="#3b241a" filter="url(#edge)"/>
<ellipse cx="-25" cy="-3.6" rx="8" ry="2" fill="#5a3a2a" opacity=".6" filter="url(#edge)"/>
<path d="M-4,-52 q-3,7 -2,14 M0,-50 q-2,7 -1,13 M4,-46 q-2,6 -1,12" fill="none" stroke="#f2a866" stroke-width=".9" stroke-linecap="round" opacity=".28" filter="url(#edge)"/>
<circle cx="32.22" cy="-14.54" r="12.50" fill="#d4702c" /><circle cx="35.86" cy="-15.39" r="13.22" fill="#d4702c" /><circle cx="38.96" cy="-16.81" r="13.78" fill="#d4702c" /><circle cx="41.55" cy="-18.75" r="14.00" fill="#d4702c" /><circle cx="43.64" cy="-21.15" r="13.73" fill="#d4702c" /><circle cx="45.24" cy="-23.95" r="12.99" fill="#d4702c" /><circle cx="46.37" cy="-27.09" r="11.93" fill="#d4702c" /><circle cx="47.04" cy="-30.52" r="10.66" fill="#d4702c" /><circle cx="47.26" cy="-34.18" r="9.34" fill="#d4702c" /><circle cx="47.06" cy="-38.02" r="8.07" fill="#d4702c" /><circle cx="46.43" cy="-41.97" r="7.01" fill="#d4702c" /><circle cx="45.41" cy="-45.98" r="6.27" fill="#d4702c" /><circle cx="44.00" cy="-50.00" r="6.00" fill="#d4702c" />
<g filter="url(#blur-sm)" opacity="0.36"><circle cx="32.22" cy="-11.34" r="9.00" fill="#b85d1c" /><circle cx="35.86" cy="-12.19" r="9.52" fill="#b85d1c" /><circle cx="38.96" cy="-13.61" r="9.92" fill="#b85d1c" /><circle cx="41.55" cy="-15.55" r="10.08" fill="#b85d1c" /><circle cx="43.64" cy="-17.95" r="9.89" fill="#b85d1c" /><circle cx="45.24" cy="-20.75" r="9.35" fill="#b85d1c" /><circle cx="46.37" cy="-23.89" r="8.59" fill="#b85d1c" /><circle cx="47.04" cy="-27.32" r="7.68" fill="#b85d1c" /><circle cx="47.26" cy="-30.98" r="6.72" fill="#b85d1c" /><circle cx="47.06" cy="-34.82" r="5.81" fill="#b85d1c" /><circle cx="46.43" cy="-38.77" r="5.05" fill="#b85d1c" /><circle cx="45.41" cy="-42.78" r="4.51" fill="#b85d1c" /><circle cx="44.00" cy="-46.80" r="4.32" fill="#b85d1c" /></g>
<g filter="url(#blur-sm)" opacity="0.4"><circle cx="31.42" cy="-17.14" r="6.88" fill="#ee9a55" /><circle cx="35.06" cy="-17.99" r="7.27" fill="#ee9a55" /><circle cx="38.16" cy="-19.41" r="7.58" fill="#ee9a55" /><circle cx="40.75" cy="-21.35" r="7.70" fill="#ee9a55" /><circle cx="42.84" cy="-23.75" r="7.55" fill="#ee9a55" /><circle cx="44.44" cy="-26.55" r="7.14" fill="#ee9a55" /><circle cx="45.57" cy="-29.69" r="6.56" fill="#ee9a55" /><circle cx="46.24" cy="-33.12" r="5.86" fill="#ee9a55" /><circle cx="46.46" cy="-36.78" r="5.14" fill="#ee9a55" /><circle cx="46.26" cy="-40.62" r="4.44" fill="#ee9a55" /><circle cx="45.63" cy="-44.57" r="3.86" fill="#ee9a55" /><circle cx="44.61" cy="-48.58" r="3.45" fill="#ee9a55" /><circle cx="43.20" cy="-52.60" r="3.30" fill="#ee9a55" /></g>
<g filter="url(#tail-soft)"><circle cx="47.06" cy="-38.02" r="7.91" fill="#f7c985" /><circle cx="46.43" cy="-41.97" r="6.87" fill="#f7c985" /><circle cx="45.41" cy="-45.98" r="6.15" fill="#f7c985" /><circle cx="44" cy="-50" r="5.88" fill="#f7c985" /></g>
</g>
</g></svg>
