<svg xmlns="http://www.w3.org/2000/svg" width="512" height="512" viewBox="0 0 512 512">
<defs>
  <filter id="goo" x="-20%" y="-20%" width="140%" height="140%"><feGaussianBlur stdDeviation="2.2" result="b"/><feColorMatrix in="b" mode="matrix" values="1 0 0 0 0  0 1 0 0 0  0 0 1 0 0  0 0 0 14 -6"/></filter>
  <mask id="silhouette" maskUnits="userSpaceOnUse" x="-64" y="-120" width="128" height="134"><g filter="url(#goo)"><circle cx="0" cy="-64" r="18" fill="#fff" /><ellipse cx="0" cy="-32" rx="24" ry="30" fill="#fff" /><ellipse cx="0" cy="-18" rx="27" ry="18" fill="#fff" /><ellipse cx="-9" cy="-92" rx="5.6" ry="24" transform="rotate(4 -9 -92)" fill="#fff" /><ellipse cx="9.5" cy="-92" rx="5.6" ry="24" transform="rotate(-11 9.5 -92)" fill="#fff" /><ellipse cx="-16" cy="-4" rx="13" ry="6" fill="#fff" /><ellipse cx="16" cy="-4" rx="13" ry="6" fill="#fff" /></g></mask>
  <radialGradient id="base" cx=".42" cy=".3" r=".85"><stop offset="0" stop-color="#dcc29c"/><stop offset=".55" stop-color="#c2a177"/><stop offset="1" stop-color="#8c6d4d"/></radialGradient>
  <filter id="blur-lg" filterUnits="userSpaceOnUse" x="-70" y="-125" width="140" height="140"><feGaussianBlur stdDeviation="2.4"/></filter>
  <filter id="edge" filterUnits="userSpaceOnUse" x="-70" y="-125" width="140" height="140"><feGaussianBlur stdDeviation=".55"/></filter>
</defs>
<g transform="translate(256 472) scale(4)">
<g mask="url(#silhouette)">
<rect x="-60" y="-120" width="120" height="130" fill="url(#base)"/>
<ellipse cx="0" cy="-6" rx="30" ry="14" fill="#4a3f33" opacity=".28" filter="url(#blur-lg)"/>
<ellipse cx="0" cy="-47" rx="15" ry="6" fill="#4a3f33" opacity=".28" filter="url(#blur-lg)"/>
<ellipse cx="0" cy="-32" rx="12" ry="17" fill="#f4e4c6" opacity=".95" filter="url(#blur-lg)"/>
<ellipse cx="-9" cy="-90" rx="2.8" ry="18.72" transform="rotate(4 -9 -90)" fill="#f4e4c6" opacity=".9" filter="url(#blur-lg)"/>
<ellipse cx="9.5" cy="-90" rx="2.8" ry="18.72" transform="rotate(-11 9.5 -90)" fill="#f4e4c6" opacity=".9" filter="url(#blur-lg)"/>
<ellipse cx="-6.5" cy="-11" rx="5.5" ry="8" fill="#cbb18c" opacity=".75" filter="url(#blur-lg)"/>
<ellipse cx="6.5" cy="-11" rx="5.5" ry="8" fill="#cbb18c" opacity=".75" filter="url(#blur-lg)"/>
<ellipse cx="-16" cy="-4" rx="13" ry="5.8" fill="#cbb18c" filter="url(#edge)"/>
<ellipse cx="16" cy="-4" rx="13" ry="5.8" fill="#cbb18c" filter="url(#edge)"/>
</g>
</g></svg>
